<?xml version="1.0" encoding="UTF-8" standalone="no"?>
<svg
   xmlns:dc="http://purl.org/dc/elements/1.1/"
   xmlns:cc="http://creativecommons.org/ns#"
   xmlns:rdf="http://www.w3.org/1999/02/22-rdf-syntax-ns#"
   xmlns:svg="http://www.w3.org/2000/svg"
   xmlns="http://www.w3.org/2000/svg"
   viewBox="0 0 818.530460 820.529300"
   id="svg2"
   version="1.0">
  <defs
     id="defs4" />
  <metadata
     id="metadata7">
    <rdf:RDF>
      <cc:Work
         rdf:about="">
        <dc:format>image/svg+xml</dc:format>
        <dc:type
           rdf:resource="http://purl.org/dc/dcmitype/StillImage" />
        <dc:title></dc:title>
      </cc:Work>
    </rdf:RDF>
  </metadata>
  <g
     id="layer1">
    <path
       id="rect2777"
       d="M -262.50039,278.08163 L 262.49977,278.08163 C 283.27478,278.08163 299.99979,294.80664 299.99979,315.58165 L 299.99979,840.58181 C 299.99979,861.35681 283.27478,878.08182 262.49977,878.08182 L -262.50039,878.08182 C -283.27539,878.08182 -300.0004,861.35681 -300.0004,840.58181 L -300.0004,315.58165 C -300.0004,294.80664 -283.27539,278.08163 -262.50039,278.08163 z "
       style="color:black;fill:#f7d117;fill-opacity:1;fill-rule:nonzero;stroke:none;stroke-width:0.8735441;stroke-linecap:butt;stroke-linejoin:miter;stroke-miterlimit:4;stroke-dashoffset:0;stroke-opacity:1;marker:none;marker-start:none;marker-mid:none;marker-end:none;visibility:visible;display:inline;overflow:visible"
       transform="matrix(0.707107,-0.707107,0.707107,0.707107,0,0)" />
    <path
       id="rect4551"
       d="M -262.51244,287.45663 L 262.48772,287.45663 C 278.06898,287.45663 290.61273,300.00039 290.61273,315.58164 L 290.61273,840.58181 C 290.61273,856.16306 278.06898,868.70682 262.48772,868.70682 L -262.51244,868.70682 C -278.0937,868.70682 -290.63745,856.16306 -290.63745,840.58181 L -290.63745,315.58164 C -290.63745,300.00039 -278.0937,287.45663 -262.51244,287.45663 z "
       style="color:black;fill:black;fill-opacity:1;fill-rule:nonzero;stroke:none;stroke-width:0.8735441;stroke-linecap:butt;stroke-linejoin:miter;stroke-miterlimit:4;stroke-dashoffset:0;stroke-opacity:1;marker:none;marker-start:none;marker-mid:none;marker-end:none;visibility:visible;display:inline;overflow:visible"
       transform="matrix(0.707107,-0.707107,0.707107,0.707107,0,0)" />
    <path
       id="rect5438"
       d="M -262.53253,303.08163 L 262.46765,303.08163 C 269.39265,303.08163 274.96765,308.65664 274.96765,315.58164 L 274.96765,840.58181 C 274.96765,847.50682 269.39265,853.08182 262.46765,853.08182 L -262.53253,853.08182 C -269.45753,853.08182 -275.03253,847.50682 -275.03253,840.58181 L -275.03253,315.58164 C -275.03253,308.65664 -269.45753,303.08163 -262.53253,303.08163 z "
       style="color:black;fill:#f7d117;fill-opacity:1;fill-rule:nonzero;stroke:none;stroke-width:0.8735441;stroke-linecap:butt;stroke-linejoin:miter;stroke-miterlimit:4;stroke-dashoffset:0;stroke-opacity:1;marker:none;marker-start:none;marker-mid:none;marker-end:none;visibility:visible;display:inline;overflow:visible"
       transform="matrix(0.707107,-0.707107,0.707107,0.707107,0,0)" />
    <g
       transform="matrix(1.5985077,0,0,1.6684374,194.91814,154.57649)"
       id="g4037">
      <circle
         cx="136.41"
         cy="25.907"
         r="25.907"
         id="circle4039" />
      <path
         d="m 189.66,132.263 c 1.267,0.412 2.568,0.612 3.862,0.612 3.08,0 6.104,-1.14 8.443,-3.281 l 10.689,-9.789 -24.214,11.969 c 0.399,0.178 0.799,0.352 1.22,0.489 z"
         id="path4041" />
      <path
         d="m 101.299,224.383 -24.993,60.661 c -3.155,7.659 0.495,16.427 8.155,19.583 1.869,0.771 3.805,1.135 5.708,1.135 5.896,0 11.489,-3.5 13.875,-9.29 l 26,-63.105 c 0.666,-1.617 1.045,-3.339 1.118,-5.087 l 1.794,-42.875 -31.493,35.048 -0.164,3.93 z"
         id="path4043" />
      <path
         d="m 169.379,177.651 0,-36.454 -5.335,2.637 c -0.992,5.561 -3.501,10.87 -7.486,15.305 l -18.621,20.723 0.297,0 15.576,42.465 -13.835,65.324 c -1.716,8.104 3.463,16.065 11.567,17.782 1.048,0.222 2.092,0.328 3.122,0.328 6.936,-0.001 13.165,-4.839 14.66,-11.895 l 14.729,-69.546 c 0.584,-2.758 0.379,-5.625 -0.592,-8.272 l -14.082,-38.397 z"
         id="path4045" />
      <path
         d="m 267.893,70.19 c -2.081,-4.209 -7.178,-5.932 -11.387,-3.854 l -113.029,55.873 c -2.958,-1.827 -6.408,-2.882 -9.993,-2.84 -2.82,0.033 -5.251,0.394 -5.251,0.394 l 14.307,10.103 c 4.581,3.235 7.842,7.834 9.382,13.142 0.49,-1.968 0.678,-4.004 0.527,-6.034 L 264.041,81.577 c 4.206,-2.081 5.932,-7.179 3.852,-11.387 z"
         id="path4047" />
      <path
         d="m 75.846,212.055 c -0.05,3.012 1.775,5.738 4.579,6.839 0.858,0.337 1.752,0.5 2.638,0.5 2.009,0 3.974,-0.84 5.372,-2.394 l 38.351,-42.68 c -4.498,-0.293 -8.795,-1.802 -12.51,-4.426 L 71.338,139.573 c -4.784,-3.378 -8.128,-8.244 -9.576,-13.85 l -18.199,1.631 c -3,0.269 -5.518,2.372 -6.316,5.276 -0.799,2.904 0.29,5.999 2.73,7.764 L 63.74,157.58 c 8.054,5.825 12.755,15.217 12.591,25.155 l -0.485,29.32 z"
         id="path4049" />
      <path
         d="m 135.307,139.449 -37.287,-26.33 0,-25.474 c 0,-1.422 1.153,-2.574 2.574,-2.574 1.422,0 2.574,1.153 2.574,2.574 l 0,22.316 27.541,-2.468 c 0.922,-0.083 1.848,-0.124 2.774,-0.124 3.633,0 7.151,0.626 10.439,1.792 l 25.456,-12.584 0,-8.933 c 0,-1.422 1.153,-2.574 2.574,-2.574 l 0.336,0 c 1.431,0 2.588,1.163 2.574,2.594 -0.022,2.422 -0.039,5.711 0.029,6.029 l 23.2,-11.31 C 193.562,68.682 182.928,60.07 170.028,60.07 l -67.238,0 c -16.23,0 -29.5,13.204 -29.581,29.396 l -0.241,29.991 c -0.032,4.097 1.943,7.948 5.29,10.312 l 42.939,30.321 c 2.19,1.547 4.707,2.29 7.199,2.29 4.108,0 8.151,-2.02 10.557,-5.79 3.625,-5.679 1.857,-13.255 -3.646,-17.141 z"
         id="path4051" />
    </g>
  </g>
</svg>
